<svg xmlns="http://www.w3.org/2000/svg" width="192" height="192" viewBox="0 0 192 192">
  <rect width="192" height="192" rx="32" fill="#2E7D32"/>
  <g transform="translate(96,96)">
    <!-- Leaf shape -->
    <path d="M0,-60 C30,-55 55,-30 60,0 C55,5 50,8 45,10 C40,-15 20,-35 0,-40 C-20,-35 -40,-15 -45,10 C-50,8 -55,5 -60,0 C-55,-30 -30,-55 0,-60Z" fill="#66BB6A"/>
    <!-- Leaf vein -->
    <line x1="0" y1="-55" x2="0" y2="10" stroke="#2E7D32" stroke-width="3"/>
    <line x1="0" y1="-30" x2="20" y2="-15" stroke="#2E7D32" stroke-width="2"/>
    <line x1="0" y1="-30" x2="-20" y2="-15" stroke="#2E7D32" stroke-width="2"/>
    <line x1="0" y1="-10" x2="15" y2="0" stroke="#2E7D32" stroke-width="2"/>
    <line x1="0" y1="-10" x2="-15" y2="0" stroke="#2E7D32" stroke-width="2"/>
    <!-- Stem -->
    <path d="M0,10 C0,30 -5,50 -10,65" stroke="#4CAF50" stroke-width="4" fill="none" stroke-linecap="round"/>
    <!-- Small sprout -->
    <path d="M-6,40 C-20,30 -15,15 -5,25" stroke="#81C784" stroke-width="2" fill="#81C784"/>
  </g>
  <!-- Text -->
  <text x="96" y="178" text-anchor="middle" font-family="Arial, sans-serif" font-size="18" font-weight="bold" fill="white">AgroFinca</text>
</svg>
